<svg width="25" height="24" viewBox="0 0 25 24" fill="none" xmlns="http://www.w3.org/2000/svg">
<path fill-rule="evenodd" clip-rule="evenodd" d="M4.21299 4.30711C4.49324 4.19103 4.81583 4.25519 5.03033 4.46969L8.5 7.93936L11.9697 4.46969C12.2626 4.1768 12.7374 4.1768 13.0303 4.46969L16.5 7.93936L19.9697 4.46969C20.1842 4.25519 20.5068 4.19103 20.787 4.30711C21.0673 4.4232 21.25 4.69668 21.25 5.00002V16C21.25 16.4142 20.9142 16.75 20.5 16.75H4.5C4.08579 16.75 3.75 16.4142 3.75 16V5.00002C3.75 4.69668 3.93273 4.4232 4.21299 4.30711ZM5.25 6.81068V15.25H19.75V6.81068L17.0303 9.53035C16.7374 9.82325 16.2626 9.82325 15.9697 9.53035L12.5 6.06068L9.03033 9.53035C8.73744 9.82325 8.26256 9.82325 7.96967 9.53035L5.25 6.81068ZM3.75 19C3.75 18.5858 4.08579 18.25 4.5 18.25H20.5C20.9142 18.25 21.25 18.5858 21.25 19C21.25 19.4142 20.9142 19.75 20.5 19.75H4.5C4.08579 19.75 3.75 19.4142 3.75 19Z" fill="#7E74F1"/>
</svg>
