<svg width="25" height="24" viewBox="0 0 25 24" fill="none" xmlns="http://www.w3.org/2000/svg">
<path fill-rule="evenodd" clip-rule="evenodd" d="M4.28363 11.25H7.76998C7.9204 8.44512 8.89621 6.30361 9.87596 4.83397C10.0814 4.52579 10.2871 4.24706 10.4854 3.99774C7.1374 4.83794 4.60136 7.72414 4.28363 11.25ZM12.5 3.99961C12.4696 4.02906 12.438 4.06014 12.4053 4.09283C12.0593 4.43885 11.5923 4.96357 11.124 5.66603C10.274 6.94103 9.42017 8.79961 9.27243 11.25H15.7276C15.5798 8.79961 14.726 6.94103 13.876 5.66603C13.4077 4.96357 12.9407 4.43885 12.5947 4.09283C12.562 4.06014 12.5304 4.02906 12.5 3.99961ZM15.7276 12.75H9.27243C9.42017 15.2004 10.274 17.059 11.124 18.334C11.5923 19.0364 12.0593 19.5611 12.4053 19.9072C12.438 19.9399 12.4696 19.9709 12.5 20.0004C12.5304 19.9709 12.562 19.9399 12.5947 19.9072C12.9407 19.5611 13.4077 19.0364 13.876 18.334C14.726 17.059 15.5798 15.2004 15.7276 12.75ZM10.4854 20.0023C10.2871 19.7529 10.0814 19.4742 9.87596 19.166C8.89621 17.6964 7.9204 15.5549 7.76998 12.75H4.28363C4.60136 16.2759 7.1374 19.1621 10.4854 20.0023ZM14.5146 20.0023C14.7129 19.7529 14.9186 19.4742 15.124 19.166C16.1038 17.6964 17.0796 15.5549 17.23 12.75H20.7164C20.3986 16.2759 17.8626 19.1621 14.5146 20.0023ZM20.7164 11.25H17.23C17.0796 8.44512 16.1038 6.30361 15.124 4.83397C14.9186 4.52579 14.7129 4.24706 14.5146 3.99774C17.8626 4.83794 20.3986 7.72414 20.7164 11.25ZM2.75 12C2.75 6.61522 7.11522 2.25 12.5 2.25C17.8848 2.25 22.25 6.61522 22.25 12C22.25 17.3848 17.8848 21.75 12.5 21.75C7.11522 21.75 2.75 17.3848 2.75 12Z" fill="#7E74F1"/>
</svg>
